<svg xmlns="http://www.w3.org/2000/svg" width="1740" height="1097" viewBox="0 0 1740 1097">

<defs>
  <filter id="glow" x="-40%" y="-40%" width="180%" height="180%">
    <feGaussianBlur in="SourceGraphic" stdDeviation="3.2" result="blur"/>
    <feMerge>
      <feMergeNode in="blur"/>
      <feMergeNode in="SourceGraphic"/>
    </feMerge>
  </filter>
  <pattern id="grid" width="34" height="34" patternUnits="userSpaceOnUse">
    <path d="M 34 0 L 0 0 0 34" fill="none" stroke="rgba(255,255,255,0.035)" stroke-width="1"/>
  </pattern>
  <marker id="arrow-primary" viewBox="0 0 10 10" refX="8" refY="5" markerWidth="7" markerHeight="7" orient="auto-start-reverse">
    <path d="M 0 0 L 10 5 L 0 10 z" fill="#9fb7cc" opacity="0.85"/>
  </marker>
  <marker id="arrow-secondary" viewBox="0 0 10 10" refX="8" refY="5" markerWidth="6" markerHeight="6" orient="auto-start-reverse">
    <path d="M 0 0 L 10 5 L 0 10 z" fill="#7d8fa3" opacity="0.6"/>
  </marker>
</defs>

<rect x="0" y="0" width="1740" height="1097" fill="#050b16"/>
<rect x="0" y="0" width="1740" height="1097" fill="url(#grid)"/>
<text x="870.0" y="38" text-anchor="middle" font-family="Arial, Helvetica, sans-serif" font-size="26" font-weight="800" letter-spacing="2" fill="#f3f8fc">AI OPEN FRAMEWORK</text>
<text x="870.0" y="58" text-anchor="middle" font-family="Arial, Helvetica, sans-serif" font-size="12.5" letter-spacing="0.5" fill="#5c7288">Realistic view — verified service-to-service calls</text>
<rect x="368" y="252" width="674" height="175" rx="14" fill="#b388ff" fill-opacity="0.035" stroke="#b388ff" stroke-opacity="0.35" stroke-width="1.3" stroke-dasharray="3 4"/>
<text x="384" y="270" font-family="Arial, Helvetica, sans-serif" font-size="11" font-weight="700" letter-spacing="0.8" fill="#b388ff" fill-opacity="0.85">IDENTITY &amp; PLATFORM</text>
<rect x="38" y="437" width="1664" height="175" rx="14" fill="#34d399" fill-opacity="0.035" stroke="#34d399" stroke-opacity="0.35" stroke-width="1.3" stroke-dasharray="3 4"/>
<text x="54" y="455" font-family="Arial, Helvetica, sans-serif" font-size="11" font-weight="700" letter-spacing="0.8" fill="#34d399" fill-opacity="0.85">SCENARIO SERVICES — one Deployment per kind, every scenario of that kind</text>
<rect x="38" y="634" width="1664" height="175" rx="14" fill="#22d3ee" fill-opacity="0.035" stroke="#22d3ee" stroke-opacity="0.35" stroke-width="1.3" stroke-dasharray="3 4"/>
<text x="54" y="652" font-family="Arial, Helvetica, sans-serif" font-size="11" font-weight="700" letter-spacing="0.8" fill="#22d3ee" fill-opacity="0.85">DATA</text>
<rect x="38" y="809" width="1334" height="160" rx="14" fill="#cddc39" fill-opacity="0.035" stroke="#cddc39" stroke-opacity="0.35" stroke-width="1.3" stroke-dasharray="3 4"/>
<text x="54" y="827" font-family="Arial, Helvetica, sans-serif" font-size="11" font-weight="700" letter-spacing="0.8" fill="#cddc39" fill-opacity="0.85">BATCH / ETL — k8s Jobs, run once or on demand</text>
<rect x="720" y="150" width="300" height="90" rx="12" fill="#0a1c2a" stroke="#4fc3f7" stroke-width="1.8" filter="url(#glow)" opacity="0.98"/>
<rect x="720" y="150" width="300" height="90" rx="12" fill="none" stroke="#4fc3f7" stroke-width="1.1" opacity="0.9"/>
<rect x="60" y="300" width="300" height="105" rx="12" fill="#08211d" stroke="#2dd4bf" stroke-width="1.8" filter="url(#glow)" opacity="0.98"/>
<rect x="60" y="300" width="300" height="105" rx="12" fill="none" stroke="#2dd4bf" stroke-width="1.1" opacity="0.9"/>
<rect x="390" y="300" width="300" height="105" rx="12" fill="#160f2b" stroke="#b388ff" stroke-width="1.8" filter="url(#glow)" opacity="0.98"/>
<rect x="390" y="300" width="300" height="105" rx="12" fill="none" stroke="#b388ff" stroke-width="1.1" opacity="0.9"/>
<rect x="720" y="300" width="300" height="105" rx="12" fill="#160f2b" stroke="#b388ff" stroke-width="1.8" filter="url(#glow)" opacity="0.98"/>
<rect x="720" y="300" width="300" height="105" rx="12" fill="none" stroke="#b388ff" stroke-width="1.1" opacity="0.9"/>
<rect x="1050" y="300" width="300" height="105" rx="12" fill="#2a2008" stroke="#ffca28" stroke-width="1.8" filter="url(#glow)" opacity="0.98"/>
<rect x="1050" y="300" width="300" height="105" rx="12" fill="none" stroke="#ffca28" stroke-width="1.1" opacity="0.9"/>
<rect x="1380" y="300" width="300" height="105" rx="12" fill="#14161c" stroke="#8b93a1" stroke-width="1.8" filter="url(#glow)" opacity="0.98"/>
<rect x="1380" y="300" width="300" height="105" rx="12" fill="none" stroke="#8b93a1" stroke-width="1.1" opacity="0.9"/>
<rect x="60" y="485" width="300" height="105" rx="12" fill="#07211a" stroke="#34d399" stroke-width="1.8" filter="url(#glow)" opacity="0.98"/>
<rect x="60" y="485" width="300" height="105" rx="12" fill="none" stroke="#34d399" stroke-width="1.1" opacity="0.9"/>
<rect x="390" y="485" width="300" height="105" rx="12" fill="#07211a" stroke="#34d399" stroke-width="1.8" filter="url(#glow)" opacity="0.98"/>
<rect x="390" y="485" width="300" height="105" rx="12" fill="none" stroke="#34d399" stroke-width="1.1" opacity="0.9"/>
<rect x="720" y="485" width="300" height="105" rx="12" fill="#07211a" stroke="#34d399" stroke-width="1.8" filter="url(#glow)" opacity="0.98"/>
<rect x="720" y="485" width="300" height="105" rx="12" fill="none" stroke="#34d399" stroke-width="1.1" opacity="0.9"/>
<rect x="1050" y="485" width="300" height="105" rx="12" fill="#07211a" stroke="#34d399" stroke-width="1.8" filter="url(#glow)" opacity="0.98"/>
<rect x="1050" y="485" width="300" height="105" rx="12" fill="none" stroke="#34d399" stroke-width="1.1" opacity="0.9"/>
<rect x="1380" y="485" width="300" height="105" rx="12" fill="#07211a" stroke="#34d399" stroke-width="1.8" filter="url(#glow)" opacity="0.98"/>
<rect x="1380" y="485" width="300" height="105" rx="12" fill="none" stroke="#34d399" stroke-width="1.1" opacity="0.9"/>
<rect x="60" y="682" width="300" height="105" rx="12" fill="#06232a" stroke="#22d3ee" stroke-width="1.8" filter="url(#glow)" opacity="0.98"/>
<rect x="60" y="682" width="300" height="105" rx="12" fill="none" stroke="#22d3ee" stroke-width="1.1" opacity="0.9"/>
<rect x="720" y="682" width="300" height="105" rx="12" fill="#06232a" stroke="#22d3ee" stroke-width="1.8" filter="url(#glow)" opacity="0.98"/>
<rect x="720" y="682" width="300" height="105" rx="12" fill="none" stroke="#22d3ee" stroke-width="1.1" opacity="0.9"/>
<rect x="1380" y="682" width="300" height="105" rx="12" fill="#06232a" stroke="#22d3ee" stroke-width="1.8" filter="url(#glow)" opacity="0.98"/>
<rect x="1380" y="682" width="300" height="105" rx="12" fill="none" stroke="#22d3ee" stroke-width="1.1" opacity="0.9"/>
<rect x="60" y="857" width="300" height="90" rx="12" fill="#20220a" stroke="#cddc39" stroke-width="1.8" filter="url(#glow)" opacity="0.98"/>
<rect x="60" y="857" width="300" height="90" rx="12" fill="none" stroke="#cddc39" stroke-width="1.1" opacity="0.9"/>
<rect x="390" y="857" width="300" height="90" rx="12" fill="#20220a" stroke="#cddc39" stroke-width="1.8" filter="url(#glow)" opacity="0.98"/>
<rect x="390" y="857" width="300" height="90" rx="12" fill="none" stroke="#cddc39" stroke-width="1.1" opacity="0.9"/>
<rect x="1050" y="857" width="300" height="90" rx="12" fill="#20220a" stroke="#cddc39" stroke-width="1.8" filter="url(#glow)" opacity="0.98"/>
<rect x="1050" y="857" width="300" height="90" rx="12" fill="none" stroke="#cddc39" stroke-width="1.1" opacity="0.9"/>
<path d="M 720 195.0 C 720 247.5 210.0 247.5 210.0 300" fill="none" stroke="#7d8fa3" stroke-width="2.2" opacity="0.8" marker-end="url(#arrow-primary)"/>
<path d="M 870.0 240 C 870.0 270.0 540.0 270.0 540.0 300" fill="none" stroke="#7d8fa3" stroke-width="2.2" opacity="0.8" marker-end="url(#arrow-primary)"/>
<path d="M 870.0 240 C 870.0 362.5 210.0 362.5 210.0 485" fill="none" stroke="#7d8fa3" stroke-width="2.2" opacity="0.8" marker-end="url(#arrow-primary)"/>
<path d="M 870.0 240 C 870.0 362.5 540.0 362.5 540.0 485" fill="none" stroke="#7d8fa3" stroke-width="2.2" opacity="0.8" marker-end="url(#arrow-primary)"/>
<path d="M 870.0 240 C 870.0 362.5 870.0 362.5 870.0 485" fill="none" stroke="#7d8fa3" stroke-width="2.2" opacity="0.8" marker-end="url(#arrow-primary)"/>
<path d="M 870.0 240 C 870.0 362.5 1200.0 362.5 1200.0 485" fill="none" stroke="#7d8fa3" stroke-width="2.2" opacity="0.8" marker-end="url(#arrow-primary)"/>
<path d="M 1020 195.0 C 1020 340.0 1530.0 340.0 1530.0 485" fill="none" stroke="#7d8fa3" stroke-width="2.2" opacity="0.8" marker-end="url(#arrow-primary)"/>
<path d="M 360.0 352.5 C 360.0 352.5 390.0 352.5 390.0 352.5" fill="none" stroke="#7d8fa3" stroke-width="1.1" opacity="0.42" stroke-dasharray="6 5" marker-end="url(#arrow-secondary)"/>
<rect x="338.0" y="348.0" width="74.0" height="16" rx="4" fill="#050b16" opacity="0.92"/>
<text x="375.0" y="360.5" text-anchor="middle" font-family="Arial, Helvetica, sans-serif" font-size="9.5" fill="#7d8fa3" opacity="0.95">OIDC login</text>
<path d="M 210.0 405 C 210.0 423 870.0 423 870.0 405" fill="none" stroke="#7d8fa3" stroke-width="1.1" opacity="0.42" stroke-dasharray="6 5" marker-end="url(#arrow-secondary)"/>
<rect x="333.4" y="420.0" width="173.2" height="16" rx="4" fill="#050b16" opacity="0.92"/>
<text x="420.0" y="432.5" text-anchor="middle" font-family="Arial, Helvetica, sans-serif" font-size="9.5" fill="#7d8fa3" opacity="0.95">loopback, bypasses Traefik</text>
<path d="M 1380.0 537.5 C 1380.0 537.5 690.0 537.5 690.0 537.5" fill="none" stroke="#7d8fa3" stroke-width="2.2" opacity="0.8" marker-end="url(#arrow-primary)"/>
<path d="M 1380.0 537.5 C 1380.0 511.25 870.0 511.25 870.0 485" fill="none" stroke="#7d8fa3" stroke-width="2.2" opacity="0.8" marker-end="url(#arrow-primary)"/>
<path d="M 1380.0 537.5 C 1380.0 537.5 1350.0 537.5 1350.0 537.5" fill="none" stroke="#7d8fa3" stroke-width="2.2" opacity="0.8" marker-end="url(#arrow-primary)"/>
<path d="M 870.0 485 C 870.0 445.0 540.0 445.0 540.0 405" fill="none" stroke="#7d8fa3" stroke-width="1.1" opacity="0.42" stroke-dasharray="6 5" marker-end="url(#arrow-secondary)"/>
<rect x="515.5" y="413.0" width="204.2" height="16" rx="4" fill="#050b16" opacity="0.92"/>
<text x="617.6" y="425.5" text-anchor="middle" font-family="Arial, Helvetica, sans-serif" font-size="9.5" fill="#7d8fa3" opacity="0.95">JWKS validation (every service)</text>
<path d="M 940.0 437 C 940.0 421.0 870.0 421.0 870.0 405" fill="none" stroke="#7d8fa3" stroke-width="1.1" opacity="0.42" stroke-dasharray="6 5" marker-end="url(#arrow-secondary)"/>
<rect x="807.1" y="413.0" width="216.6" height="16" rx="4" fill="#050b16" opacity="0.92"/>
<text x="915.4" y="425.5" text-anchor="middle" font-family="Arial, Helvetica, sans-serif" font-size="9.5" fill="#7d8fa3" opacity="0.95">entitlement check (every service)</text>
<path d="M 210.0 485 C 210.0 418.75 1050 418.75 1050 352.5" fill="none" stroke="#7d8fa3" stroke-width="2.2" opacity="0.8" marker-end="url(#arrow-primary)"/>
<path d="M 870.0 485 C 870.0 418.75 1050 418.75 1050 352.5" fill="none" stroke="#7d8fa3" stroke-width="2.2" opacity="0.8" marker-end="url(#arrow-primary)"/>
<path d="M 1200.0 485 C 1200.0 418.75 1050 418.75 1050 352.5" fill="none" stroke="#7d8fa3" stroke-width="2.2" opacity="0.8" marker-end="url(#arrow-primary)"/>
<path d="M 1350.0 352.5 C 1350.0 352.5 1380.0 352.5 1380.0 352.5" fill="none" stroke="#7d8fa3" stroke-width="2.2" opacity="0.8" marker-end="url(#arrow-primary)"/>
<path d="M 870.0 590 C 870.0 636.0 870.0 636.0 870.0 682" fill="none" stroke="#7d8fa3" stroke-width="2.2" opacity="0.8" marker-end="url(#arrow-primary)"/>
<path d="M 1200.0 590 C 1200.0 636.0 870.0 636.0 870.0 682" fill="none" stroke="#7d8fa3" stroke-width="2.2" opacity="0.8" marker-end="url(#arrow-primary)"/>
<path d="M 210.0 590 C 210.0 636.0 1530.0 636.0 1530.0 682" fill="none" stroke="#7d8fa3" stroke-width="2.2" opacity="0.8" marker-end="url(#arrow-primary)"/>
<path d="M 540.0 590 C 540.0 636.0 1530.0 636.0 1530.0 682" fill="none" stroke="#7d8fa3" stroke-width="2.2" opacity="0.8" marker-end="url(#arrow-primary)"/>
<path d="M 1350.0 537.5 C 1350.0 609.75 1530.0 609.75 1530.0 682" fill="none" stroke="#7d8fa3" stroke-width="2.2" opacity="0.8" marker-end="url(#arrow-primary)"/>
<path d="M 390.0 537.5 C 390.0 609.75 210.0 609.75 210.0 682" fill="none" stroke="#7d8fa3" stroke-width="1.1" opacity="0.42" stroke-dasharray="6 5" marker-end="url(#arrow-secondary)"/>
<path d="M 720.0 537.5 C 720.0 609.75 210.0 609.75 210.0 682" fill="none" stroke="#7d8fa3" stroke-width="1.1" opacity="0.42" stroke-dasharray="6 5" marker-end="url(#arrow-secondary)"/>
<path d="M 1050.0 537.5 C 1050.0 609.75 210.0 609.75 210.0 682" fill="none" stroke="#7d8fa3" stroke-width="1.1" opacity="0.42" stroke-dasharray="6 5" marker-end="url(#arrow-secondary)"/>
<path d="M 540.0 405 C 540.0 543.5 210.0 543.5 210.0 682" fill="none" stroke="#7d8fa3" stroke-width="1.1" opacity="0.42" stroke-dasharray="6 5" marker-end="url(#arrow-secondary)"/>
<path d="M 210.0 405 C 210.0 569.75 60.0 569.75 60.0 734.5" fill="none" stroke="#7d8fa3" stroke-width="1.1" opacity="0.42" stroke-dasharray="6 5" marker-end="url(#arrow-secondary)"/>
<path d="M 870.0 300 C 870.0 300.0 540.0 300.0 540.0 300" fill="none" stroke="#7d8fa3" stroke-width="2.2" opacity="0.8" marker-end="url(#arrow-primary)"/>
<rect x="655.6" y="246.0" width="98.8" height="16" rx="4" fill="#050b16" opacity="0.92"/>
<text x="705.0" y="258.5" text-anchor="middle" font-family="Arial, Helvetica, sans-serif" font-size="9.5" fill="#7d8fa3" opacity="0.95">Admin REST API</text>
<path d="M 360.0 902.0 C 360.0 844.5 1530.0 844.5 1530.0 787" fill="none" stroke="#7d8fa3" stroke-width="2.2" opacity="0.8" marker-end="url(#arrow-primary)"/>
<path d="M 690.0 902.0 C 690.0 844.5 1530.0 844.5 1530.0 787" fill="none" stroke="#7d8fa3" stroke-width="2.2" opacity="0.8" marker-end="url(#arrow-primary)"/>
<path d="M 1200.0 857 C 1200.0 822.0 870.0 822.0 870.0 787" fill="none" stroke="#7d8fa3" stroke-width="2.2" opacity="0.8" marker-end="url(#arrow-primary)"/>
<path d="M 1350.0 902.0 C 1350.0 844.5 1530.0 844.5 1530.0 787" fill="none" stroke="#7d8fa3" stroke-width="2.2" opacity="0.8" marker-end="url(#arrow-primary)"/>
<text x="870.0" y="180" text-anchor="middle" font-family="Arial, Helvetica, sans-serif" font-size="17" font-weight="700" letter-spacing="0.5" fill="#f3f8fc">TRAEFIK</text>
<text x="870.0" y="202" text-anchor="middle" font-family="Arial, Helvetica, sans-serif" font-size="11.5" fill="#9fb7cc">Ingress — single entrypoint, *.localhost</text>
<line x1="738" y1="214" x2="1002" y2="214" stroke="#4fc3f7" stroke-opacity="0.25"/>
<text x="870.0" y="230" text-anchor="middle" font-family="Arial, Helvetica, sans-serif" font-size="10" font-style="italic" fill="#607890">Traefik</text>
<text x="210.0" y="330" text-anchor="middle" font-family="Arial, Helvetica, sans-serif" font-size="17" font-weight="700" letter-spacing="0.5" fill="#f3f8fc">UI-REACT</text>
<text x="210.0" y="352" text-anchor="middle" font-family="Arial, Helvetica, sans-serif" font-size="11.5" fill="#9fb7cc">Web app — scenario picker, dashboards,</text>
<text x="210.0" y="367" text-anchor="middle" font-family="Arial, Helvetica, sans-serif" font-size="11.5" fill="#9fb7cc">chat</text>
<line x1="78" y1="379" x2="342" y2="379" stroke="#2dd4bf" stroke-opacity="0.25"/>
<text x="210.0" y="395" text-anchor="middle" font-family="Arial, Helvetica, sans-serif" font-size="10" font-style="italic" fill="#607890">React + Vite + CopilotKit</text>
<text x="540.0" y="330" text-anchor="middle" font-family="Arial, Helvetica, sans-serif" font-size="17" font-weight="700" letter-spacing="0.5" fill="#f3f8fc">KEYCLOAK</text>
<text x="540.0" y="352" text-anchor="middle" font-family="Arial, Helvetica, sans-serif" font-size="11.5" fill="#9fb7cc">Identity — OIDC login, Organizations =</text>
<text x="540.0" y="367" text-anchor="middle" font-family="Arial, Helvetica, sans-serif" font-size="11.5" fill="#9fb7cc">tenants</text>
<line x1="408" y1="379" x2="672" y2="379" stroke="#b388ff" stroke-opacity="0.25"/>
<text x="540.0" y="395" text-anchor="middle" font-family="Arial, Helvetica, sans-serif" font-size="10" font-style="italic" fill="#607890">Keycloak (OIDC)</text>
<text x="870.0" y="330" text-anchor="middle" font-family="Arial, Helvetica, sans-serif" font-size="17" font-weight="700" letter-spacing="0.5" fill="#f3f8fc">PLATFORM-REGISTRY</text>
<text x="870.0" y="352" text-anchor="middle" font-family="Arial, Helvetica, sans-serif" font-size="11.5" fill="#9fb7cc">Tenants, scenario roles, entitlement</text>
<text x="870.0" y="367" text-anchor="middle" font-family="Arial, Helvetica, sans-serif" font-size="11.5" fill="#9fb7cc">checks</text>
<line x1="738" y1="379" x2="1002" y2="379" stroke="#b388ff" stroke-opacity="0.25"/>
<text x="870.0" y="395" text-anchor="middle" font-family="Arial, Helvetica, sans-serif" font-size="10" font-style="italic" fill="#607890">FastAPI + SQLAlchemy</text>
<text x="1200.0" y="330" text-anchor="middle" font-family="Arial, Helvetica, sans-serif" font-size="17" font-weight="700" letter-spacing="0.5" fill="#f3f8fc">LLM-GATEWAY</text>
<text x="1200.0" y="352" text-anchor="middle" font-family="Arial, Helvetica, sans-serif" font-size="11.5" fill="#9fb7cc">Routes every LLM call, one place to swap</text>
<text x="1200.0" y="367" text-anchor="middle" font-family="Arial, Helvetica, sans-serif" font-size="11.5" fill="#9fb7cc">providers</text>
<line x1="1068" y1="379" x2="1332" y2="379" stroke="#ffca28" stroke-opacity="0.25"/>
<text x="1200.0" y="395" text-anchor="middle" font-family="Arial, Helvetica, sans-serif" font-size="10" font-style="italic" fill="#607890">LiteLLM proxy</text>
<text x="1530.0" y="330" text-anchor="middle" font-family="Arial, Helvetica, sans-serif" font-size="17" font-weight="700" letter-spacing="0.5" fill="#f3f8fc">LLM PROVIDERS</text>
<text x="1530.0" y="367" text-anchor="middle" font-family="Arial, Helvetica, sans-serif" font-size="11.5" fill="#9fb7cc">OpenAI / Anthropic / Groq / … or local</text>
<line x1="1398" y1="379" x2="1662" y2="379" stroke="#8b93a1" stroke-opacity="0.25"/>
<text x="1530.0" y="395" text-anchor="middle" font-family="Arial, Helvetica, sans-serif" font-size="10" font-style="italic" fill="#607890">Ollama (optional)</text>
<text x="210.0" y="515" text-anchor="middle" font-family="Arial, Helvetica, sans-serif" font-size="17" font-weight="700" letter-spacing="0.5" fill="#f3f8fc">PREDICTION</text>
<text x="210.0" y="537" text-anchor="middle" font-family="Arial, Helvetica, sans-serif" font-size="11.5" fill="#9fb7cc">Tabular ML — predictions + SHAP</text>
<text x="210.0" y="552" text-anchor="middle" font-family="Arial, Helvetica, sans-serif" font-size="11.5" fill="#9fb7cc">explainability</text>
<line x1="78" y1="564" x2="342" y2="564" stroke="#34d399" stroke-opacity="0.25"/>
<text x="210.0" y="580" text-anchor="middle" font-family="Arial, Helvetica, sans-serif" font-size="10" font-style="italic" fill="#607890">FastAPI + scikit-learn/LightGBM</text>
<text x="540.0" y="515" text-anchor="middle" font-family="Arial, Helvetica, sans-serif" font-size="17" font-weight="700" letter-spacing="0.5" fill="#f3f8fc">ASSISTANT</text>
<text x="540.0" y="552" text-anchor="middle" font-family="Arial, Helvetica, sans-serif" font-size="11.5" fill="#9fb7cc">Chat copilot for tabular_ml scenarios</text>
<line x1="408" y1="564" x2="672" y2="564" stroke="#34d399" stroke-opacity="0.25"/>
<text x="540.0" y="580" text-anchor="middle" font-family="Arial, Helvetica, sans-serif" font-size="10" font-style="italic" fill="#607890">FastAPI + LangChain</text>
<text x="870.0" y="515" text-anchor="middle" font-family="Arial, Helvetica, sans-serif" font-size="17" font-weight="700" letter-spacing="0.5" fill="#f3f8fc">RAG-AGENT</text>
<text x="870.0" y="537" text-anchor="middle" font-family="Arial, Helvetica, sans-serif" font-size="11.5" fill="#9fb7cc">Document Q&amp;A over a scenario's knowledge</text>
<text x="870.0" y="552" text-anchor="middle" font-family="Arial, Helvetica, sans-serif" font-size="11.5" fill="#9fb7cc">base</text>
<line x1="738" y1="564" x2="1002" y2="564" stroke="#34d399" stroke-opacity="0.25"/>
<text x="870.0" y="580" text-anchor="middle" font-family="Arial, Helvetica, sans-serif" font-size="10" font-style="italic" fill="#607890">FastAPI + LangChain + Qdrant</text>
<text x="1200.0" y="515" text-anchor="middle" font-family="Arial, Helvetica, sans-serif" font-size="17" font-weight="700" letter-spacing="0.5" fill="#f3f8fc">FORM-AGENT</text>
<text x="1200.0" y="537" text-anchor="middle" font-family="Arial, Helvetica, sans-serif" font-size="11.5" fill="#9fb7cc">Conversational form-filling,</text>
<text x="1200.0" y="552" text-anchor="middle" font-family="Arial, Helvetica, sans-serif" font-size="11.5" fill="#9fb7cc">RAG-grounded</text>
<line x1="1068" y1="564" x2="1332" y2="564" stroke="#34d399" stroke-opacity="0.25"/>
<text x="1200.0" y="580" text-anchor="middle" font-family="Arial, Helvetica, sans-serif" font-size="10" font-style="italic" fill="#607890">FastAPI + LangChain + Qdrant</text>
<text x="1530.0" y="515" text-anchor="middle" font-family="Arial, Helvetica, sans-serif" font-size="17" font-weight="700" letter-spacing="0.5" fill="#f3f8fc">AGUI-VOICE</text>
<text x="1530.0" y="537" text-anchor="middle" font-family="Arial, Helvetica, sans-serif" font-size="11.5" fill="#9fb7cc">Voice front-end — bridges into the 3</text>
<text x="1530.0" y="552" text-anchor="middle" font-family="Arial, Helvetica, sans-serif" font-size="11.5" fill="#9fb7cc">agents</text>
<line x1="1398" y1="564" x2="1662" y2="564" stroke="#34d399" stroke-opacity="0.25"/>
<text x="1530.0" y="580" text-anchor="middle" font-family="Arial, Helvetica, sans-serif" font-size="10" font-style="italic" fill="#607890">FastAPI + Pipecat (Whisper/Piper)</text>
<text x="210.0" y="712" text-anchor="middle" font-family="Arial, Helvetica, sans-serif" font-size="17" font-weight="700" letter-spacing="0.5" fill="#f3f8fc">POSTGRES</text>
<text x="210.0" y="734" text-anchor="middle" font-family="Arial, Helvetica, sans-serif" font-size="11.5" fill="#9fb7cc">Keycloak · platform · per-agent</text>
<text x="210.0" y="749" text-anchor="middle" font-family="Arial, Helvetica, sans-serif" font-size="11.5" fill="#9fb7cc">conversation history</text>
<line x1="78" y1="761" x2="342" y2="761" stroke="#22d3ee" stroke-opacity="0.25"/>
<text x="210.0" y="777" text-anchor="middle" font-family="Arial, Helvetica, sans-serif" font-size="10" font-style="italic" fill="#607890">PostgreSQL</text>
<text x="870.0" y="712" text-anchor="middle" font-family="Arial, Helvetica, sans-serif" font-size="17" font-weight="700" letter-spacing="0.5" fill="#f3f8fc">QDRANT</text>
<text x="870.0" y="749" text-anchor="middle" font-family="Arial, Helvetica, sans-serif" font-size="11.5" fill="#9fb7cc">Per-tenant vector collections</text>
<line x1="738" y1="761" x2="1002" y2="761" stroke="#22d3ee" stroke-opacity="0.25"/>
<text x="870.0" y="777" text-anchor="middle" font-family="Arial, Helvetica, sans-serif" font-size="10" font-style="italic" fill="#607890">Qdrant</text>
<text x="1530.0" y="712" text-anchor="middle" font-family="Arial, Helvetica, sans-serif" font-size="17" font-weight="700" letter-spacing="0.5" fill="#f3f8fc">SEAWEEDFS</text>
<text x="1530.0" y="734" text-anchor="middle" font-family="Arial, Helvetica, sans-serif" font-size="11.5" fill="#9fb7cc">Datasets, models, documents</text>
<text x="1530.0" y="749" text-anchor="middle" font-family="Arial, Helvetica, sans-serif" font-size="11.5" fill="#9fb7cc">(S3-compatible)</text>
<line x1="1398" y1="761" x2="1662" y2="761" stroke="#22d3ee" stroke-opacity="0.25"/>
<text x="1530.0" y="777" text-anchor="middle" font-family="Arial, Helvetica, sans-serif" font-size="10" font-style="italic" fill="#607890">SeaweedFS</text>
<text x="210.0" y="887" text-anchor="middle" font-family="Arial, Helvetica, sans-serif" font-size="17" font-weight="700" letter-spacing="0.5" fill="#f3f8fc">ETL-TABULAR</text>
<text x="210.0" y="909" text-anchor="middle" font-family="Arial, Helvetica, sans-serif" font-size="11.5" fill="#9fb7cc">Prepares each scenario's tabular dataset</text>
<line x1="78" y1="921" x2="342" y2="921" stroke="#cddc39" stroke-opacity="0.25"/>
<text x="210.0" y="937" text-anchor="middle" font-family="Arial, Helvetica, sans-serif" font-size="10" font-style="italic" fill="#607890">k8s Job · pandas/pyarrow</text>
<text x="540.0" y="887" text-anchor="middle" font-family="Arial, Helvetica, sans-serif" font-size="17" font-weight="700" letter-spacing="0.5" fill="#f3f8fc">TRAINING</text>
<text x="540.0" y="909" text-anchor="middle" font-family="Arial, Helvetica, sans-serif" font-size="11.5" fill="#9fb7cc">Trains + registers each scenario's model</text>
<line x1="408" y1="921" x2="672" y2="921" stroke="#cddc39" stroke-opacity="0.25"/>
<text x="540.0" y="937" text-anchor="middle" font-family="Arial, Helvetica, sans-serif" font-size="10" font-style="italic" fill="#607890">k8s Job · scikit-learn/LightGBM</text>
<text x="1200.0" y="887" text-anchor="middle" font-family="Arial, Helvetica, sans-serif" font-size="17" font-weight="700" letter-spacing="0.5" fill="#f3f8fc">ETL-VECTORIZE</text>
<text x="1200.0" y="909" text-anchor="middle" font-family="Arial, Helvetica, sans-serif" font-size="11.5" fill="#9fb7cc">Chunks + embeds documents into Qdrant</text>
<line x1="1068" y1="921" x2="1332" y2="921" stroke="#cddc39" stroke-opacity="0.25"/>
<text x="1200.0" y="937" text-anchor="middle" font-family="Arial, Helvetica, sans-serif" font-size="10" font-style="italic" fill="#607890">k8s Job · embeddings</text>
<circle cx="365.0" cy="977" r="6.5" fill="#4fc3f7"/>
<text x="380.0" y="981" font-family="Arial, Helvetica, sans-serif" font-size="12" fill="#9fb7cc">Ingress</text>
<circle cx="446.9" cy="977" r="6.5" fill="#2dd4bf"/>
<text x="461.9" y="981" font-family="Arial, Helvetica, sans-serif" font-size="12" fill="#9fb7cc">Frontend</text>
<circle cx="535.5" cy="977" r="6.5" fill="#b388ff"/>
<text x="550.5" y="981" font-family="Arial, Helvetica, sans-serif" font-size="12" fill="#9fb7cc">Identity &amp; platform</text>
<circle cx="724.6" cy="977" r="6.5" fill="#ffca28"/>
<text x="739.6" y="981" font-family="Arial, Helvetica, sans-serif" font-size="12" fill="#9fb7cc">LLM routing</text>
<circle cx="833.3" cy="977" r="6.5" fill="#34d399"/>
<text x="848.3" y="981" font-family="Arial, Helvetica, sans-serif" font-size="12" fill="#9fb7cc">Scenario services</text>
<circle cx="982.2" cy="977" r="6.5" fill="#22d3ee"/>
<text x="997.2" y="981" font-family="Arial, Helvetica, sans-serif" font-size="12" fill="#9fb7cc">Data</text>
<circle cx="1044.0" cy="977" r="6.5" fill="#cddc39"/>
<text x="1059.0" y="981" font-family="Arial, Helvetica, sans-serif" font-size="12" fill="#9fb7cc">Batch / ETL</text>
<circle cx="1152.7" cy="977" r="6.5" fill="#8b93a1"/>
<text x="1167.7" y="981" font-family="Arial, Helvetica, sans-serif" font-size="12" fill="#9fb7cc">External</text>
<text x="870.0" y="1063" text-anchor="middle" font-family="Arial, Helvetica, sans-serif" font-size="11" fill="#5c7288">Runs identically on Kubernetes (k3s), namespace ai-circus, and via docker compose</text>
</svg>